<?xml version="1.0" standalone="no"?><!DOCTYPE svg PUBLIC "-//W3C//DTD SVG 1.1//EN" "http://www.w3.org/Graphics/SVG/1.1/DTD/svg11.dtd"><svg t="1602991251811" class="icon" viewBox="0 0 1024 1024" version="1.1" xmlns="http://www.w3.org/2000/svg" p-id="2586" xmlns:xlink="http://www.w3.org/1999/xlink" width="200" height="200"><defs><style type="text/css"></style></defs><path d="M617.325714 825.051429h-198.948571c-14.628571 0-26.331429-11.702857-26.331429-38.034286V272.091429c0-55.588571 43.885714-99.474286 99.474286-99.474286h61.44c55.588571 0 99.474286 43.885714 99.474286 99.474286V789.942857c0 17.554286-14.628571 35.108571-35.108572 35.108572zM438.857143 778.24h169.691428V272.091429c0-29.257143-23.405714-52.662857-52.662857-52.662858h-61.44c-29.257143 0-52.662857 23.405714-52.662857 52.662858v506.148571z" fill="#3271B0" p-id="2587"></path><path d="M766.537143 825.051429h-128.731429c-17.554286 0-32.182857-14.628571-32.182857-35.108572V488.594286c0-17.554286 14.628571-29.257143 29.257143-29.257143h131.657143c55.588571 0 99.474286 43.885714 99.474286 99.474286v166.765714c0 52.662857-43.885714 99.474286-99.474286 99.474286z m-114.102857-46.811429h114.102857c29.257143 0 52.662857-23.405714 52.662857-52.662857v-166.765714c0-29.257143-23.405714-52.662857-52.662857-52.662858h-114.102857v272.091429zM406.674286 825.051429H277.942857c-55.588571 0-99.474286-43.885714-99.474286-99.474286v-248.685714c0-55.588571 43.885714-99.474286 99.474286-99.474286H409.6c14.628571 0 29.257143 14.628571 29.257143 29.257143V789.942857c0 20.48-17.554286 35.108571-32.182857 35.108572zM277.942857 421.302857c-29.257143 0-52.662857 23.405714-52.662857 52.662857v248.685715c0 29.257143 23.405714 52.662857 52.662857 52.662857h114.102857V421.302857H277.942857z" fill="#3271B0" p-id="2588"></path></svg>